<svg version="1.1" id="Layer_1" xmlns="http://www.w3.org/2000/svg" xmlns:xlink="http://www.w3.org/1999/xlink" x="0px" y="0px"
	 width="100%" viewBox="0 0 2048 2048" enable-background="new 0 0 2048 2048" xml:space="preserve">
<path fill="#282827" opacity="1.000000" stroke="none" 
	d="
M1.000000,2048.000000 
	C1.000000,1365.731201 1.000000,683.462402 1.000000,1.000000 
	C683.037598,1.000000 1365.075195,1.000000 2047.544678,1.457848 
	C2047.976562,683.805054 2047.976562,1365.694458 2047.976562,2047.997925 
	C2044.661621,2047.997925 2042.024780,2047.998169 2039.387939,2047.998291 
	C1737.737793,2048.001465 1436.087769,2048.006836 1134.437622,2048.006836 
	C756.625061,2048.007080 378.812531,2048.002441 1.000000,2048.000000 
M1239.500000,665.096436 
	C1161.842407,665.117065 1084.184814,665.136169 1006.527161,665.161011 
	C999.179749,665.163391 999.149292,665.180359 999.149536,672.583191 
	C999.155334,847.729492 999.190063,1022.875793 999.070251,1198.021973 
	C999.066772,1203.087524 1000.821594,1204.045166 1005.396912,1204.016479 
	C1033.559082,1203.839844 1061.723022,1203.927734 1089.886353,1203.931030 
	C1096.961182,1203.931885 1096.989990,1203.937256 1096.991943,1211.144287 
	C1097.007690,1266.804443 1097.015381,1322.464600 1097.013672,1378.124756 
	C1097.013428,1385.095947 1096.981201,1385.081909 1104.187500,1385.083618 
	C1119.852295,1385.087280 1135.518066,1385.216187 1151.181885,1385.099609 
	C1199.477783,1384.740234 1247.798584,1385.106812 1296.060425,1383.608032 
	C1332.760010,1382.468384 1368.389893,1374.313110 1402.174805,1359.561523 
	C1443.154785,1341.668457 1475.520630,1313.892944 1494.122437,1272.698608 
	C1514.689575,1227.151489 1517.603394,1179.535034 1506.126831,1131.000610 
	C1499.132446,1101.421143 1485.527588,1075.500488 1462.979126,1054.750000 
	C1443.594360,1036.911011 1420.939941,1024.393555 1396.537231,1014.862305 
	C1389.167725,1011.983887 1381.740234,1009.254272 1373.406616,1006.103943 
	C1375.512207,1004.875671 1376.705688,1004.099670 1377.967041,1003.457031 
	C1384.785767,999.982605 1391.850220,996.925903 1398.412720,993.023682 
	C1431.139648,973.563782 1454.595947,946.364929 1466.390625,909.817261 
	C1478.343018,872.781372 1478.596069,835.098999 1471.381714,797.233337 
	C1466.160278,769.827698 1454.537354,745.141541 1435.727661,724.535706 
	C1406.889160,692.943359 1369.144531,678.457275 1328.076660,671.163330 
	C1299.112549,666.019043 1269.874390,664.490784 1239.500000,665.096436 
M748.990784,1069.500000 
	C748.990784,935.026733 748.990784,800.553467 748.990784,666.003540 
	C695.219299,666.003540 641.826050,666.003540 588.421387,666.003540 
	C588.421387,905.836548 588.421387,1145.228760 588.421387,1384.657471 
	C742.692383,1384.657471 896.580566,1384.657471 1050.368408,1384.657471 
	C1050.368408,1340.197266 1050.368408,1296.126587 1050.368408,1251.502197 
	C949.742249,1251.502197 849.538513,1251.502197 748.991394,1251.502197 
	C748.991394,1190.797852 748.991394,1130.648926 748.990784,1069.500000 
z"/>
<path fill="#535352" opacity="1.000000" stroke="none" 
	d="
M1.000000,2048.500000 
	C378.812531,2048.002441 756.625061,2048.007080 1134.437622,2048.006836 
	C1436.087769,2048.006836 1737.737793,2048.001465 2039.387939,2047.998291 
	C2042.024780,2047.998169 2044.661621,2047.997925 2047.976562,2047.997925 
	C2047.976562,1365.694458 2047.976562,683.805054 2047.988281,1.457840 
	C2048.333252,1.166651 2048.943848,1.315916 2048.955566,1.502782 
	C2049.038818,2.830891 2049.000000,4.166667 2049.000000,5.500000 
	C2049.000000,686.666687 2049.000000,1367.833374 2049.000000,2049.000000 
	C1366.333374,2049.000000 683.666687,2049.000000 1.000000,2048.500000 
z"/>
<path fill="#E92826" opacity="1.000000" stroke="none" 
	d="
M1240.000000,665.097168 
	C1269.874390,664.490784 1299.112549,666.019043 1328.076660,671.163330 
	C1369.144531,678.457275 1406.889160,692.943359 1435.727661,724.535706 
	C1454.537354,745.141541 1466.160278,769.827698 1471.381714,797.233337 
	C1478.596069,835.098999 1478.343018,872.781372 1466.390625,909.817261 
	C1454.595947,946.364929 1431.139648,973.563782 1398.412720,993.023682 
	C1391.850220,996.925903 1384.785767,999.982605 1377.967041,1003.457031 
	C1376.705688,1004.099670 1375.512207,1004.875671 1373.406616,1006.103943 
	C1381.740234,1009.254272 1389.167725,1011.983887 1396.537231,1014.862305 
	C1420.939941,1024.393555 1443.594360,1036.911011 1462.979126,1054.750000 
	C1485.527588,1075.500488 1499.132446,1101.421143 1506.126831,1131.000610 
	C1517.603394,1179.535034 1514.689575,1227.151489 1494.122437,1272.698608 
	C1475.520630,1313.892944 1443.154785,1341.668457 1402.174805,1359.561523 
	C1368.389893,1374.313110 1332.760010,1382.468384 1296.060425,1383.608032 
	C1247.798584,1385.106812 1199.477783,1384.740234 1151.181885,1385.099609 
	C1135.518066,1385.216187 1119.852295,1385.087280 1104.187500,1385.083618 
	C1096.981201,1385.081909 1097.013428,1385.095947 1097.013672,1378.124756 
	C1097.015381,1322.464600 1097.007690,1266.804443 1096.991943,1211.144287 
	C1096.989990,1203.937256 1096.961182,1203.931885 1089.886353,1203.931030 
	C1061.723022,1203.927734 1033.559082,1203.839844 1005.396912,1204.016479 
	C1000.821594,1204.045166 999.066772,1203.087524 999.070251,1198.021973 
	C999.190063,1022.875793 999.155334,847.729492 999.149536,672.583191 
	C999.149292,665.180359 999.179749,665.163391 1006.527161,665.161011 
	C1084.184814,665.136169 1161.842407,665.117065 1240.000000,665.097168 
M1157.013428,1200.500000 
	C1156.997070,1219.327271 1157.063477,1238.155396 1156.895996,1256.981323 
	C1156.861572,1260.855347 1158.021973,1262.166504 1162.016479,1262.145142 
	C1191.005859,1261.989502 1220.010986,1262.587524 1248.980713,1261.813599 
	C1263.197510,1261.433716 1277.663940,1259.952026 1291.465332,1256.656616 
	C1319.845093,1249.880493 1341.446777,1233.869995 1350.984741,1205.141235 
	C1358.355713,1182.938721 1358.671875,1160.226929 1351.778687,1137.782715 
	C1344.623169,1114.484497 1329.715332,1097.914429 1307.101685,1088.363403 
	C1290.420166,1081.317993 1272.938965,1078.312256 1254.998535,1078.145752 
	C1224.510986,1077.862915 1194.019287,1078.005737 1163.529419,1077.978638 
	C1156.984009,1077.972778 1156.944336,1077.990356 1156.946167,1084.537842 
	C1156.957031,1122.858521 1156.988037,1161.179321 1157.013428,1200.500000 
M1156.981812,951.390503 
	C1157.053467,958.824890 1157.053467,958.843628 1164.692871,958.850708 
	C1189.189209,958.873413 1213.693848,959.256226 1238.178223,958.719482 
	C1248.749878,958.487732 1259.562378,957.452820 1269.773560,954.851868 
	C1296.635986,948.009521 1314.377441,931.164185 1321.176880,903.820984 
	C1326.084717,884.084473 1326.159790,864.301331 1321.191528,844.505981 
	C1315.530762,821.951172 1302.340210,805.838257 1280.680176,797.088928 
	C1266.923218,791.532104 1252.380737,789.457520 1237.662842,789.263428 
	C1213.003540,788.938110 1188.338013,789.078247 1163.675049,789.042725 
	C1156.945435,789.033020 1156.915283,789.066101 1156.916992,795.943481 
	C1156.929932,847.435852 1156.955688,898.928284 1156.981812,951.390503 
z"/>
<path fill="#FEFEFE" opacity="1.000000" stroke="none" 
	d="
M748.991089,1070.000000 
	C748.991394,1130.648926 748.991394,1190.797852 748.991394,1251.502197 
	C849.538513,1251.502197 949.742249,1251.502197 1050.368408,1251.502197 
	C1050.368408,1296.126587 1050.368408,1340.197266 1050.368408,1384.657471 
	C896.580566,1384.657471 742.692383,1384.657471 588.421387,1384.657471 
	C588.421387,1145.228760 588.421387,905.836548 588.421387,666.003540 
	C641.826050,666.003540 695.219299,666.003540 748.990784,666.003540 
	C748.990784,800.553467 748.990784,935.026733 748.991089,1070.000000 
z"/>
<path fill="#2A2727" opacity="1.000000" stroke="none" 
	d="
M1157.012817,1200.000000 
	C1156.988037,1161.179321 1156.957031,1122.858521 1156.946167,1084.537842 
	C1156.944336,1077.990356 1156.984009,1077.972778 1163.529419,1077.978638 
	C1194.019287,1078.005737 1224.510986,1077.862915 1254.998535,1078.145752 
	C1272.938965,1078.312256 1290.420166,1081.317993 1307.101685,1088.363403 
	C1329.715332,1097.914429 1344.623169,1114.484497 1351.778687,1137.782715 
	C1358.671875,1160.226929 1358.355713,1182.938721 1350.984741,1205.141235 
	C1341.446777,1233.869995 1319.845093,1249.880493 1291.465332,1256.656616 
	C1277.663940,1259.952026 1263.197510,1261.433716 1248.980713,1261.813599 
	C1220.010986,1262.587524 1191.005859,1261.989502 1162.016479,1262.145142 
	C1158.021973,1262.166504 1156.861572,1260.855347 1156.895996,1256.981323 
	C1157.063477,1238.155396 1156.997070,1219.327271 1157.012817,1200.000000 
z"/>
<path fill="#2A2726" opacity="1.000000" stroke="none" 
	d="
M1156.979492,950.905579 
	C1156.955688,898.928284 1156.929932,847.435852 1156.916992,795.943481 
	C1156.915283,789.066101 1156.945435,789.033020 1163.675049,789.042725 
	C1188.338013,789.078247 1213.003540,788.938110 1237.662842,789.263428 
	C1252.380737,789.457520 1266.923218,791.532104 1280.680176,797.088928 
	C1302.340210,805.838257 1315.530762,821.951172 1321.191528,844.505981 
	C1326.159790,864.301331 1326.084717,884.084473 1321.176880,903.820984 
	C1314.377441,931.164185 1296.635986,948.009521 1269.773560,954.851868 
	C1259.562378,957.452820 1248.749878,958.487732 1238.178223,958.719482 
	C1213.693848,959.256226 1189.189209,958.873413 1164.692871,958.850708 
	C1157.053467,958.843628 1157.053467,958.824890 1156.979492,950.905579 
z"/>
</svg>